<svg width="36" height="36" viewBox="0 0 36 36" fill="none" xmlns="http://www.w3.org/2000/svg">
<g clipPath="url(#clip0_1392_5463)">
<path d="M17.9634 0.074707C8.04257 0.074707 0 8.11728 0 18.0381C0 26.9359 6.47614 34.3047 14.9674 35.7316V21.7857H10.6341V16.7671H14.9674V13.0666C14.9674 8.77299 17.5899 6.43321 21.4206 6.43321C23.2554 6.43321 24.8321 6.56992 25.2898 6.63014V11.1181L22.6329 11.1194C20.55 11.1194 20.1484 12.109 20.1484 13.5616V16.7646H25.1184L24.4701 21.7831H20.1484V35.8516C29.0361 34.7699 35.9265 27.2134 35.9265 18.0329C35.9265 8.11728 27.8839 0.074707 17.9634 0.074707Z" fill="#212121"/>
</g>
<defs>
<clipPath id="clip0_1392_5463">
<rect width="36" height="36" fill="white"/>
</clipPath>
</defs>
</svg>
