<svg width="36" height="36" viewBox="0 0 36 36" fill="none" xmlns="http://www.w3.org/2000/svg">
<g clipPath="url(#clip0_1392_5469)">
<path d="M21.13 18.065C21.13 19.7578 19.7578 21.13 18.065 21.13C16.3722 21.13 15 19.7578 15 18.065C15 16.3722 16.3722 15 18.065 15C19.7578 15 21.13 16.3722 21.13 18.065Z" fill="#212121"/>
<path d="M25.2853 10.7166C24.9519 10.3733 24.5459 10.1091 24.0969 9.94345C23.7327 9.802 23.1855 9.63364 22.1778 9.58777C21.0877 9.53806 20.7609 9.52734 18.0011 9.52734C15.2411 9.52734 14.9142 9.53778 13.8244 9.58749C12.8167 9.63364 12.2693 9.802 11.9053 9.94345C11.4563 10.1091 11.05 10.3733 10.7169 10.7166C10.3736 11.05 10.1093 11.456 9.94345 11.9051C9.802 12.2693 9.63364 12.8167 9.58777 13.8244C9.53806 14.9142 9.52734 15.2411 9.52734 18.0011C9.52734 20.7609 9.53806 21.0877 9.58777 22.1778C9.63364 23.1855 9.802 23.7327 9.94345 24.0969C10.1093 24.5459 10.3733 24.9519 10.7166 25.2853C11.05 25.6286 11.456 25.8929 11.9051 26.0585C12.2693 26.2002 12.8167 26.3686 13.8244 26.4144C14.9142 26.4641 15.2408 26.4746 18.0008 26.4746C20.7611 26.4746 21.088 26.4641 22.1776 26.4144C23.1853 26.3686 23.7327 26.2002 24.0969 26.0585C24.9983 25.7108 25.7108 24.9983 26.0585 24.0969C26.1999 23.7327 26.3683 23.1855 26.4144 22.1778C26.4641 21.0877 26.4746 20.7609 26.4746 18.0011C26.4746 15.2411 26.4641 14.9142 26.4144 13.8244C26.3686 12.8167 26.2002 12.2693 26.0585 11.9051C25.8929 11.4563 25.6286 11.05 25.2853 10.7166ZM18.0011 23.3083C15.0697 23.3083 12.6933 20.9323 12.6933 18.0008C12.6933 15.0694 15.0697 12.6933 18.0011 12.6933C20.9323 12.6933 23.3086 15.0694 23.3086 18.0008C23.3086 20.9323 20.9323 23.3083 18.0011 23.3083ZM23.5184 13.7238C22.8334 13.7238 22.2781 13.1685 22.2781 12.4835C22.2781 11.7985 22.8334 11.2431 23.5184 11.2431C24.2034 11.2431 24.7588 11.7985 24.7588 12.4835C24.7585 13.1685 24.2034 13.7238 23.5184 13.7238Z" fill="#212121"/>
<path d="M18 0C8.06039 0 0 8.06039 0 18C0 27.9396 8.06039 36 18 36C27.9396 36 36 27.9396 36 18C36 8.06039 27.9396 0 18 0ZM28.2736 22.2613C28.2236 23.3616 28.0486 24.1128 27.7932 24.7703C27.2563 26.1587 26.1587 27.2563 24.7703 27.7932C24.1131 28.0486 23.3616 28.2233 22.2616 28.2736C21.1594 28.3239 20.8073 28.3359 18.0003 28.3359C15.193 28.3359 14.8412 28.3239 13.7387 28.2736C12.6387 28.2233 11.8872 28.0486 11.2299 27.7932C10.54 27.5337 9.91544 27.1269 9.39908 26.6009C8.87338 26.0848 8.46661 25.46 8.20706 24.7703C7.95163 24.1131 7.77667 23.3616 7.72668 22.2616C7.67587 21.1591 7.66406 20.807 7.66406 18C7.66406 15.193 7.67587 14.8409 7.72641 13.7387C7.7764 12.6384 7.95108 11.8872 8.20651 11.2297C8.46606 10.54 8.87311 9.91516 9.39908 9.39908C9.91516 8.87311 10.54 8.46634 11.2297 8.20679C11.8872 7.95135 12.6384 7.77667 13.7387 7.72641C14.8409 7.67615 15.193 7.66406 18 7.66406C20.807 7.66406 21.1591 7.67615 22.2613 7.72668C23.3616 7.77667 24.1128 7.95135 24.7703 8.20651C25.46 8.46606 26.0848 8.87311 26.6012 9.39908C27.1269 9.91544 27.5339 10.54 27.7932 11.2297C28.0489 11.8872 28.2236 12.6384 28.2739 13.7387C28.3241 14.8409 28.3359 15.193 28.3359 18C28.3359 20.807 28.3241 21.1591 28.2736 22.2613Z" fill="#212121"/>
</g>
<defs>
<clipPath id="clip0_1392_5469">
<rect width="36" height="36" fill="white"/>
</clipPath>
</defs>
</svg>
