<svg width="19" height="18" viewBox="0 0 19 18" fill="none" xmlns="http://www.w3.org/2000/svg">
<g id="instagram 1">
<path id="Vector" d="M5.82227 0.75C4.57952 0.75 3.45377 1.25475 2.64002 2.06775C1.82627 2.88075 1.32227 4.00725 1.32227 5.25V12.75C1.32227 13.9928 1.82702 15.1185 2.64002 15.9323C3.45302 16.746 4.57952 17.25 5.82227 17.25H13.3223C14.565 17.25 15.6908 16.7453 16.5045 15.9323C17.3183 15.1193 17.8223 13.9928 17.8223 12.75V5.25C17.8223 4.00725 17.3175 2.8815 16.5045 2.06775C15.6915 1.254 14.565 0.75 13.3223 0.75H5.82227ZM5.82227 2.25H13.3223C14.151 2.25 14.8995 2.58525 15.4433 3.129C15.987 3.67275 16.3223 4.42125 16.3223 5.25V12.75C16.3223 13.5788 15.987 14.3273 15.4433 14.871C14.8995 15.4148 14.151 15.75 13.3223 15.75H5.82227C4.99352 15.75 4.24502 15.4148 3.70127 14.871C3.15752 14.3273 2.82227 13.5788 2.82227 12.75V5.25C2.82227 4.42125 3.15752 3.67275 3.70127 3.129C4.24502 2.58525 4.99352 2.25 5.82227 2.25ZM13.314 8.41725C13.2015 7.68825 12.8858 7.0245 12.4185 6.492C11.853 5.84625 11.0655 5.39325 10.1618 5.259C9.81377 5.2035 9.43427 5.20125 9.05402 5.2575C8.02952 5.409 7.16327 5.96325 6.59252 6.73275C6.02177 7.50225 5.74277 8.493 5.89502 9.51675C6.04727 10.5405 6.60077 11.4075 7.37027 11.9783C8.13977 12.549 9.13052 12.828 10.1543 12.6757C11.178 12.5235 12.045 11.97 12.6158 11.2005C13.1865 10.431 13.4655 9.44025 13.3133 8.4165L13.314 8.41725ZM11.8305 8.63775C11.922 9.25275 11.7555 9.8445 11.412 10.308C11.0685 10.7715 10.5495 11.1023 9.93527 11.193C9.32102 11.2838 8.72852 11.118 8.26502 10.7745C7.80152 10.431 7.47077 9.912 7.38002 9.29775C7.28927 8.6835 7.45502 8.091 7.79852 7.6275C8.14202 7.164 8.66102 6.83325 9.27527 6.7425C9.51002 6.708 9.73652 6.711 9.92777 6.741C10.4828 6.8235 10.9523 7.0935 11.2913 7.4805C11.5725 7.8015 11.7638 8.20275 11.8313 8.63775H11.8305ZM13.6973 5.625C14.1113 5.625 14.4473 5.289 14.4473 4.875C14.4473 4.461 14.1113 4.125 13.6973 4.125C13.2833 4.125 12.9473 4.461 12.9473 4.875C12.9473 5.289 13.2833 5.625 13.6973 5.625Z" fill="#424242"/>
</g>
</svg>
