<svg width="19" height="18" viewBox="0 0 19 18" fill="none" xmlns="http://www.w3.org/2000/svg">
<g id="linkedin 2">
<path id="Vector" d="M12.7148 5.25C11.2651 5.25 9.95184 5.83875 9.00234 6.7875C8.05284 7.73625 7.46484 9.05025 7.46484 10.5V15.75C7.46484 16.164 7.80084 16.5 8.21484 16.5H11.2148C11.6288 16.5 11.9648 16.164 11.9648 15.75V10.5C11.9648 10.293 12.0481 10.1062 12.1846 9.96975C12.3211 9.83325 12.5078 9.75 12.7148 9.75C12.9218 9.75 13.1086 9.83325 13.2451 9.96975C13.3816 10.1062 13.4648 10.293 13.4648 10.5V15.75C13.4648 16.164 13.8008 16.5 14.2148 16.5H17.2148C17.6288 16.5 17.9648 16.164 17.9648 15.75V10.5C17.9648 9.05025 17.3761 7.737 16.4273 6.7875C15.4786 5.838 14.1646 5.25 12.7148 5.25ZM12.7148 6.75C13.7506 6.75 14.6873 7.16925 15.3668 7.848C16.0463 8.52675 16.4648 9.46425 16.4648 10.5V15H14.9648V10.5C14.9648 9.879 14.7121 9.315 14.3056 8.90925C13.8991 8.5035 13.3358 8.25 12.7148 8.25C12.0938 8.25 11.5298 8.50275 11.1241 8.90925C10.7183 9.31575 10.4648 9.879 10.4648 10.5V15H8.96484V10.5C8.96484 9.46425 9.38409 8.5275 10.0628 7.848C10.7416 7.1685 11.6791 6.75 12.7148 6.75ZM2.21484 6C1.80084 6 1.46484 6.336 1.46484 6.75V15.75C1.46484 16.164 1.80084 16.5 2.21484 16.5H5.21484C5.62884 16.5 5.96484 16.164 5.96484 15.75V6.75C5.96484 6.336 5.62884 6 5.21484 6H2.21484ZM2.96484 7.5H4.46484V15H2.96484V7.5ZM5.96484 3C5.96484 2.379 5.71209 1.815 5.30559 1.40925C4.89909 1.0035 4.33584 0.75 3.71484 0.75C3.09384 0.75 2.52984 1.00275 2.12409 1.40925C1.71834 1.81575 1.46484 2.379 1.46484 3C1.46484 3.621 1.71759 4.185 2.12409 4.59075C2.53059 4.9965 3.09384 5.25 3.71484 5.25C4.33584 5.25 4.89984 4.99725 5.30559 4.59075C5.71134 4.18425 5.96484 3.621 5.96484 3ZM4.46484 3C4.46484 3.207 4.38159 3.39375 4.24509 3.53025C4.10859 3.66675 3.92184 3.75 3.71484 3.75C3.50784 3.75 3.32109 3.66675 3.18459 3.53025C3.04809 3.39375 2.96484 3.207 2.96484 3C2.96484 2.793 3.04809 2.60625 3.18459 2.46975C3.32109 2.33325 3.50784 2.25 3.71484 2.25C3.92184 2.25 4.10859 2.33325 4.24509 2.46975C4.38159 2.60625 4.46484 2.793 4.46484 3Z" fill="#424242"/>
</g>
</svg>
