<svg width="115" height="46" viewBox="0 0 115 46" fill="none" xmlns="http://www.w3.org/2000/svg">
<g id="eranico 1" clipPath="url(#clip0_335_14977)">
<g id="Group">
<path id="Vector" d="M81.5995 1.97217C81.6147 2.00063 81.643 2.01486 81.6866 2.01486C82.4455 2.07484 83.1304 2.33712 83.7566 2.74781C84.7191 3.36284 85.4193 4.21168 85.8144 5.27807C86.1052 6.0832 86.1913 6.90255 86.0748 7.75139C85.8995 9.06684 85.2592 10.1078 84.2531 10.9414C83.7566 11.3653 83.1882 11.6581 82.562 11.8482C82.3128 11.9214 82.0513 11.9803 81.8021 12.0098C81.0432 12.1257 80.3005 12.0688 79.5852 11.8482C78.7108 11.5859 77.9671 11.0878 77.3389 10.4148C76.5972 9.60969 76.1433 8.67343 76.0268 7.59078C75.895 6.33327 76.1869 5.17641 76.9164 4.15374C77.4432 3.42079 78.114 2.85049 78.9286 2.45606C79.3957 2.23648 79.877 2.07484 80.4018 2.0169C80.4312 2.0169 80.4464 1.98945 80.4464 1.9742C80.8254 1.97217 81.2053 1.97217 81.5995 1.97217ZM77.501 7.16585C77.4858 7.57553 77.6175 8.07365 77.8222 8.46808C78.4058 9.59444 79.3086 10.3111 80.5913 10.487C81.0006 10.546 81.41 10.5307 81.8173 10.4433C82.2834 10.3559 82.7069 10.1658 83.101 9.874C83.6553 9.46331 84.0778 8.96518 84.3554 8.32373C84.6026 7.72293 84.6756 7.10892 84.5722 6.47966C84.5145 6.12792 84.4273 5.77721 84.2662 5.45495C83.7282 4.40178 82.8822 3.72881 81.7139 3.49398C81.1597 3.37606 80.6207 3.41977 80.0958 3.58141C79.6004 3.72678 79.1464 3.97685 78.7543 4.32757C77.9549 5.04426 77.5162 5.92258 77.501 7.16585Z" fill="#FB8C00"/>
<path id="Vector_2" d="M103.136 22.8933V31.4945C103.136 32.504 103.021 33.5012 102.774 34.4802C102.554 35.3575 102.235 36.1921 101.782 36.982C101.27 37.8593 100.572 38.5465 99.7087 39.0883C98.8931 39.6007 98.0187 39.9961 97.1139 40.2889C96.5758 40.4638 96.0064 40.6091 95.4512 40.7423C94.9699 40.8592 94.5028 40.9334 94.0073 41.0056C93.598 41.0635 93.1765 41.1225 92.7672 41.1804C92.3001 41.2384 91.834 41.2973 91.3669 41.3573C91.3071 41.3573 91.2646 41.3716 91.2068 41.3716C91.1632 41.3716 91.1349 41.3573 91.1349 41.3116C91.1349 41.2526 91.1187 41.1957 91.1187 41.1225C91.1187 39.5275 91.1187 37.9183 91.1187 36.3222C91.1187 36.2643 91.1187 36.2206 91.1187 36.1626C91.1187 36.1189 91.148 36.0894 91.2068 36.0742C91.4105 36.0447 91.6009 36.002 91.8036 35.9715C92.2575 35.8841 92.6952 35.8119 93.1461 35.7225C93.6274 35.635 94.0945 35.5039 94.5605 35.3575C94.9233 35.2416 95.2738 35.0952 95.6092 34.9041C95.6386 34.8889 95.6528 34.8756 95.6822 34.8594C96.0013 34.6835 96.207 34.4202 96.3235 34.0695C96.5272 33.4697 96.6305 32.8557 96.7025 32.2265C96.7623 31.6562 96.7623 31.0848 96.7623 30.5278C96.7623 26.4899 96.7623 22.4673 96.7623 18.4285C96.7623 16.8192 96.7623 15.21 96.7623 13.6008C96.7623 13.2795 96.7339 13.2938 97.0541 13.2938H102.858H102.96C103.119 13.2938 103.135 13.309 103.135 13.4686V13.6597C103.136 16.7481 103.136 19.8202 103.136 22.8933ZM101.941 23.5947C101.941 22.3962 101.941 21.1956 101.941 19.995C101.941 18.2547 101.941 16.5 101.941 14.7576C101.941 14.5086 101.956 14.5086 101.709 14.5086C100.556 14.5086 99.3905 14.5086 98.2385 14.5086C98.1787 14.5086 98.1352 14.5086 98.0764 14.5086C98.0176 14.5086 98.0045 14.5523 98.0045 14.597V14.8013C98.0045 15.577 98.0197 16.3516 98.0197 17.1425V30.6457C98.0197 31.5972 97.9599 32.5324 97.7714 33.4555C97.6843 33.9089 97.5536 34.348 97.3641 34.7862C97.204 35.1664 96.9406 35.4602 96.6052 35.7072C96.2405 35.9563 95.8615 36.1616 95.4532 36.3212C94.826 36.5703 94.1836 36.7451 93.5291 36.8773C93.1927 36.9515 92.8583 37.0094 92.522 37.0684C92.3771 37.0979 92.3771 37.0979 92.3771 37.2585V37.3185V39.7613V39.9219C92.3771 39.9667 92.4044 39.9819 92.449 39.9819H92.6091C92.8573 39.9524 93.0914 39.9087 93.3376 39.8782C94.4765 39.7318 95.5991 39.497 96.7065 39.1453C97.5374 38.883 98.3409 38.5312 99.0704 38.0646C99.4057 37.8593 99.7097 37.6245 100.003 37.348C100.397 36.9515 100.702 36.4981 100.966 36.0152C101.343 35.2701 101.607 34.4792 101.752 33.6608C101.898 32.8994 101.956 32.138 101.956 31.3613C101.929 28.7752 101.941 26.1849 101.941 23.5947Z" fill="#FB8C00"/>
<path id="Vector_3" d="M105.252 20.6548C105.252 16.3242 105.252 11.9946 105.252 7.67821C105.252 7.59079 105.252 7.50235 105.267 7.41492C105.267 7.37222 105.296 7.35697 105.34 7.34274H105.5H111.493C111.742 7.34274 111.742 7.34274 111.726 7.5918V7.72294V33.6639C111.726 34.1031 111.786 34.0431 111.347 34.0431C109.437 34.0431 107.527 34.0431 105.618 34.0431C105.545 34.0431 105.458 34.0431 105.385 34.0431C105.283 34.0431 105.268 34.0136 105.268 33.9119C105.268 33.8387 105.268 33.7513 105.268 33.6791C105.252 29.316 105.252 24.9854 105.252 20.6548ZM110.5 20.6843C110.5 16.7328 110.5 12.7834 110.5 8.83406C110.5 8.49655 110.53 8.52705 110.194 8.52705C109.073 8.52705 107.95 8.52705 106.828 8.52705C106.419 8.52705 106.477 8.46707 106.477 8.892V25.5425V32.4308V32.6951C106.477 32.7541 106.506 32.7683 106.565 32.7683H106.797H110.166C110.559 32.7683 110.501 32.813 110.501 32.4166C110.5 28.5119 110.5 24.5899 110.5 20.6843Z" fill="#FB8C00"/>
<path id="Vector_4" d="M87.4468 7.67718C87.4468 7.28173 87.4022 7.33968 87.7964 7.33968H93.5707C93.9071 7.33968 93.8919 7.31121 93.8919 7.64668V33.733C93.8919 34.0542 93.9213 34.041 93.5991 34.041C91.6446 34.041 89.6769 34.041 87.7214 34.041C87.6626 34.041 87.6201 34.041 87.5623 34.041C87.4752 34.041 87.4458 34.0126 87.4458 33.9394C87.4458 33.8519 87.4458 33.7635 87.4458 33.6761C87.4468 29.3323 87.4468 12.0088 87.4468 7.67718ZM88.6424 20.6253V32.4318V32.6951C88.6424 32.7551 88.6708 32.7683 88.7296 32.7683H88.919H92.4187C92.7115 32.7683 92.6811 32.7825 92.6811 32.4897C92.6811 24.5889 92.6811 16.6891 92.6811 8.78931C92.6811 8.49654 92.7095 8.51077 92.4045 8.51077C91.2677 8.51077 90.1146 8.51077 88.9778 8.51077C88.5999 8.51077 88.6424 8.46706 88.6424 8.84726C88.6424 12.7834 88.6424 16.7044 88.6424 20.6253Z" fill="#FB8C00"/>
</g>
<g id="Group_2">
<path id="Vector_5" d="M74.3081 44.9255C74.3231 44.9255 74.3361 44.9255 74.3661 44.9405C74.3381 44.9255 74.3231 44.9255 74.3081 44.9255Z" fill="#FB8C00"/>
<path id="Vector_6" d="M75.5898 44.9406H75.6342C75.6625 44.9406 75.6786 44.9255 75.7059 44.9255C75.6786 44.9255 75.6625 44.9255 75.6342 44.9406C75.6201 44.9255 75.605 44.9255 75.5898 44.9406Z" fill="#FB8C00"/>
<path id="Vector_7" d="M66.7109 44.9406H66.7392C66.7836 44.9406 66.8259 44.9255 66.8834 44.9255C66.8401 44.9255 66.7967 44.9406 66.7694 44.9406C66.7392 44.9255 66.7241 44.9255 66.7109 44.9406Z" fill="#FB8C00"/>
<path id="Vector_8" d="M73.4765 44.7371C73.4625 44.7371 73.4335 44.7211 73.4185 44.7211C73.4335 44.7211 73.4625 44.7211 73.4765 44.7371Z" fill="#FB8C00"/>
<path id="Vector_9" d="M74.3079 44.9255C74.0302 44.8818 73.7536 44.8238 73.4912 44.7344C73.7536 44.8248 74.0171 44.8818 74.3079 44.9255Z" fill="#FB8C00"/>
<path id="Vector_10" d="M74.3657 44.9255C74.3657 44.9255 74.3951 44.9406 74.3951 44.9699H75.5471C75.5623 44.9547 75.5765 44.9406 75.5907 44.9255C75.1834 44.985 74.7761 44.985 74.3657 44.9255Z" fill="#FB8C00"/>
<path id="Vector_11" d="M65.5155 44.9255C65.1518 44.8818 64.8012 44.7933 64.4658 44.6774C64.787 44.7944 65.1214 44.8818 65.473 44.9255C65.5023 44.9255 65.5175 44.955 65.5175 44.9702H66.6696C66.6848 44.955 66.6969 44.9407 66.7131 44.9255C66.317 44.9855 65.9228 44.9855 65.5155 44.9255Z" fill="#FB8C00"/>
<path id="Vector_12" d="M79.9801 41.4742C79.9953 41.4305 80.0094 41.3858 80.0246 41.3268C80.053 41.2546 80.0692 41.1652 80.0844 41.093C80.0996 41.0208 80.1118 40.9629 80.128 40.8887C80.1432 40.846 80.1432 40.787 80.1564 40.7433C80.1716 40.6396 80.1857 40.5522 80.2009 40.4505C80.2009 40.421 80.2009 40.3763 80.2161 40.3478C80.2313 40.2452 80.2313 40.1283 80.2313 40.0266C80.2313 39.9819 80.2313 39.9392 80.2313 39.8944C80.2313 39.8497 80.2313 39.808 80.2313 39.7623C80.2313 39.6586 80.2161 39.5417 80.2161 39.4411C80.2161 39.4126 80.2161 39.3689 80.2009 39.3374C80.1857 39.2357 80.1716 39.1351 80.1564 39.0456C80.1412 39.0019 80.1412 38.9429 80.128 38.9002C80.1138 38.826 80.0996 38.7661 80.0844 38.6949C80.0692 38.6227 80.0398 38.5343 80.0246 38.4611C80.0094 38.4184 79.9953 38.3737 79.9801 38.3137C79.9649 38.271 79.9527 38.2263 79.9375 38.1836C79.8929 38.0666 79.8352 37.9335 79.7926 37.8176C79.6163 37.4516 79.3964 37.1009 79.1209 36.7654C78.6254 36.1657 78.0418 35.6828 77.3265 35.3463C76.8604 35.1277 76.3781 34.9946 75.8816 34.9224C75.8542 34.9224 75.839 34.9224 75.8097 34.9082C75.7945 34.9082 75.7813 34.9082 75.7651 34.8929C75.3578 34.8339 74.9494 34.8502 74.5411 34.8929C74.5411 34.8929 74.5411 34.8929 74.5259 34.8929C74.5117 34.8929 74.4986 34.8929 74.4824 34.8929C74.2057 34.9356 73.9281 34.9956 73.6647 35.083C73.6505 35.083 73.6221 35.0983 73.6059 35.0983H73.5917C73.4154 35.1572 73.2402 35.2294 73.0659 35.3178C72.2482 35.7133 71.5795 36.2836 71.0536 37.0145C70.9513 37.1619 70.85 37.3083 70.7618 37.4679C70.7183 37.3805 70.6747 37.3083 70.6159 37.2351C70.0769 36.4015 69.3626 35.7417 68.4588 35.3168C68.0059 35.1125 67.5398 34.9803 67.0443 34.8929C66.9998 34.8929 66.9572 34.8777 66.9278 34.8777C66.9126 34.8777 66.9005 34.8777 66.8832 34.8634C66.4769 34.8045 66.097 34.8197 65.6876 34.8634C65.3239 34.9071 64.9733 34.9946 64.639 35.1115C64.4779 35.1714 64.332 35.2284 64.1861 35.3026C63.3694 35.699 62.6987 36.2683 62.1748 36.9992C61.6925 37.6732 61.4017 38.4194 61.2994 39.195V39.2093C61.2994 39.2672 61.2852 39.3262 61.2852 39.3862C61.27 39.5315 61.27 39.6779 61.27 39.8233C61.27 39.9717 61.27 40.1171 61.2852 40.2635C61.2852 40.3214 61.2994 40.3804 61.2994 40.4383V40.4536C61.4028 41.2292 61.6935 41.9754 62.1748 42.6483C62.7007 43.3803 63.3704 43.9506 64.1861 44.346C64.3309 44.4182 64.4931 44.4782 64.639 44.5361C64.9753 44.653 65.3239 44.7405 65.6876 44.7832C66.096 44.8279 66.4749 44.8431 66.8832 44.7832C66.8984 44.7832 66.9126 44.7689 66.9278 44.7689C66.9724 44.7689 67.015 44.7547 67.0443 44.7547C67.5398 44.6815 68.0069 44.5504 68.4588 44.3308C69.3626 43.9059 70.0627 43.2471 70.6159 42.4135C70.6605 42.3403 70.7031 42.2529 70.7618 42.1787C70.85 42.3261 70.9513 42.4867 71.0536 42.6331C71.5805 43.365 72.2502 43.9343 73.0659 44.3308C73.2402 44.4182 73.4154 44.4914 73.5917 44.5504H73.6059C73.6221 44.5504 73.6505 44.5656 73.6647 44.5656C73.9271 44.653 74.2047 44.712 74.4824 44.7567H74.5259H74.5411C74.9494 44.8157 75.3578 44.8157 75.7651 44.7567C75.7813 44.7567 75.7945 44.7567 75.8097 44.7405C75.839 44.7405 75.8694 44.7405 75.8816 44.7252C76.3923 44.653 76.8735 44.5209 77.3265 44.3013C78.0266 43.9648 78.6244 43.483 79.1209 42.8822C79.3964 42.5457 79.6163 42.195 79.7926 41.83C79.8514 41.7131 79.8929 41.5962 79.9375 41.464C79.9375 41.5626 79.9517 41.5179 79.9801 41.4742ZM67.0605 43.4352C66.2885 43.611 65.5164 43.5379 64.8021 43.1709C63.8841 42.689 63.2407 42.015 62.9357 41.1093C62.804 40.7718 62.7311 40.4068 62.7453 40.0998C62.7453 40.0845 62.7453 40.0713 62.7453 40.0551C62.7453 40.0124 62.7453 39.9524 62.7453 39.9097C62.7453 39.865 62.7453 39.807 62.7453 39.7623C62.7453 39.7481 62.7453 39.7328 62.7453 39.7186C62.7301 39.4116 62.8182 39.0314 62.9357 38.7081C63.2407 37.8013 63.8841 37.1294 64.8021 36.6445C65.5164 36.2805 66.2895 36.2073 67.0605 36.3822C68.1416 36.616 68.9289 37.2463 69.4538 38.211C69.702 38.6634 69.8165 39.1463 69.8469 39.6444V39.9087C69.8469 39.9087 69.8469 40.0845 69.8469 40.172C69.8195 40.6691 69.702 41.1509 69.4538 41.6053C68.9269 42.5721 68.1406 43.2004 67.0605 43.4352ZM69.8611 42.3668C69.8611 42.3515 69.8459 42.3383 69.8459 42.3383H69.8742C69.8742 42.3383 69.8611 42.3515 69.8611 42.3668ZM78.7257 39.9371V40.113C78.7115 40.728 78.5231 41.3126 78.1725 41.8697C77.5879 42.7907 76.7418 43.3325 75.6628 43.4941C75.3426 43.5389 75.0072 43.5389 74.6708 43.4941C74.0882 43.4067 73.5492 43.1871 73.0821 42.8212C72.3961 42.2936 71.9007 41.6358 71.7112 40.8023C71.6524 40.5684 71.6089 40.3346 71.6089 40.1283C71.6089 40.0561 71.6089 39.9829 71.6089 39.9097C71.6089 39.8365 71.6089 39.7623 71.6089 39.6891C71.6089 39.4848 71.6372 39.2357 71.7112 39.0171C71.9159 38.1836 72.3961 37.5238 73.0821 36.9982C73.5644 36.6312 74.0882 36.4117 74.6708 36.3242C74.991 36.2815 75.3274 36.2815 75.6628 36.3242C76.7408 36.4838 77.5727 37.0409 78.1725 37.9497C78.5231 38.4895 78.6983 39.0761 78.7257 39.7054V39.8802V39.9097C78.7257 39.9097 78.7257 39.9229 78.7257 39.9371Z" fill="#FB8C00"/>
</g>
<path id="Vector_13" d="M73.0537 34.655C73.0827 34.671 73.1117 34.671 73.1117 34.671C73.0967 34.655 73.0827 34.655 73.0537 34.655Z" fill="#FB8C00"/>
<path id="Vector_14" d="M85.2449 12.754C85.2449 12.695 85.2449 12.6381 85.2449 12.5628C85.2449 12.4175 85.2297 12.4175 85.1 12.4032C85.0413 12.4032 84.9835 12.4032 84.9095 12.4032C82.3876 12.4032 79.8505 12.4032 77.3276 12.4032C76.9325 12.4032 76.9771 12.3433 76.9771 12.754V27.2096V27.4435C76.9771 27.5451 76.9477 27.5746 76.8464 27.6041C76.817 27.6193 76.7734 27.6193 76.743 27.6193C76.3205 27.6915 75.897 27.6773 75.4603 27.662C75.3002 27.662 75.1533 27.6193 74.9922 27.6041C74.905 27.5888 74.8767 27.5604 74.8767 27.4587C74.8767 27.3845 74.8767 27.2971 74.8767 27.2229C74.8767 22.4104 74.8767 17.6101 74.8767 12.7977C74.8767 12.7235 74.8767 12.6503 74.8767 12.5923C74.8767 12.4154 74.8767 12.4154 74.7004 12.4154C74.6426 12.4154 74.5849 12.4154 74.5119 12.4154H67.2208C67.0739 12.4154 66.9442 12.4154 66.7973 12.4154C66.623 12.4154 66.623 12.4154 66.623 12.5923V12.7977V27.1944V27.4272C66.623 27.5604 66.5936 27.5888 66.4619 27.6183C66.1833 27.661 65.9087 27.6905 65.6311 27.6905C65.3099 27.6905 64.9887 27.6905 64.6685 27.6905C64.2896 27.6905 64.3321 27.72 64.3321 27.354C64.3321 26.2124 64.3321 25.0565 64.3321 23.9159C64.3321 23.3761 64.2724 22.8475 64.1417 22.3352C63.9096 21.3115 63.4719 20.3905 62.8164 19.5691C61.941 18.4874 60.8325 17.726 59.5639 17.1842C58.8922 16.8924 58.192 16.6871 57.4787 16.5427C56.9397 16.4238 56.3845 16.3658 55.8313 16.2926C55.2608 16.2327 54.6782 16.2327 54.1098 16.2327C49.0782 16.2327 44.0344 16.2327 39.0028 16.2327C38.9156 16.2327 38.8265 16.2327 38.7403 16.2327C38.712 16.2327 38.6816 16.2327 38.6816 16.19C38.6816 16.1747 38.6968 16.1605 38.6968 16.1452C38.7413 16.1025 38.7991 16.0731 38.8417 16.0436C39.556 15.5455 40.3017 15.1216 41.1032 14.7851C41.7445 14.5218 42.3869 14.3032 43.0576 14.1416C43.5095 14.0247 43.9766 13.922 44.4427 13.8498C44.8075 13.7909 45.1864 13.7177 45.5512 13.674C46.1064 13.615 46.6596 13.5428 47.2149 13.4828C47.8127 13.4239 48.4115 13.3954 49.0093 13.3517C49.8989 13.2927 50.7885 13.2785 51.6781 13.25C52.5383 13.2206 53.3985 13.2053 54.2598 13.1758H54.3621C54.434 13.1758 54.4644 13.1484 54.4492 13.0742C54.434 12.8831 54.4198 12.7082 54.4047 12.5334C54.3469 11.8594 54.2729 11.1722 54.2152 10.4992C54.1554 9.86993 54.0987 9.24067 54.0389 8.62666C53.9669 7.82255 53.893 7.03267 53.82 6.22754C53.8038 6.08116 53.7917 5.949 53.7765 5.80363C53.7613 5.58405 53.7765 5.57084 53.5292 5.58405C53.4836 5.58405 53.4411 5.58405 53.3965 5.58405C52.4481 5.61353 51.5028 5.62878 50.5544 5.65826C49.8543 5.68673 49.1684 5.73044 48.4682 5.77517C48.0741 5.80261 47.6647 5.86259 47.2716 5.89207C46.8633 5.92054 46.455 5.98052 46.0476 6.02321C45.4053 6.11165 44.7487 6.21331 44.1063 6.317C43.5379 6.41866 42.9695 6.52133 42.4163 6.63722C41.8337 6.76938 41.2491 6.91576 40.6654 7.06113C39.9947 7.237 39.3229 7.44133 38.6664 7.66193C37.9227 7.90997 37.1931 8.18852 36.4788 8.51077C35.6196 8.89097 34.802 9.3159 34.0127 9.81199C33.3713 10.2217 32.7593 10.7056 32.1757 11.2016C31.3003 11.9631 30.513 12.7956 29.8139 13.7187C29.1269 14.6255 28.5595 15.6054 28.1066 16.6596C27.7702 17.419 27.524 18.2099 27.3052 19.015C27.1441 19.629 27.0559 20.2583 26.9384 20.8876C26.8229 21.5168 26.7206 22.1451 26.6182 22.7743C26.5888 22.9217 26.5746 23.0671 26.5595 23.2135C26.5443 23.2857 26.5746 23.3151 26.6466 23.3151H26.9384H54.1787H54.6732C54.9214 23.3151 55.1838 23.3436 55.432 23.4026C55.5638 23.4321 55.6813 23.4758 55.7968 23.5337C55.9721 23.6079 56.0582 23.738 56.044 23.9302V24.0908V27.3987V27.5888C56.044 27.6915 56.0167 27.721 55.9295 27.721C55.8404 27.721 55.7532 27.721 55.6661 27.721C46.2027 27.721 36.7372 27.721 27.2748 27.721C26.5017 27.721 25.7296 27.721 24.9413 27.721C24.8826 27.721 24.84 27.721 24.7813 27.721C24.7529 27.721 24.7367 27.6915 24.7367 27.661C24.7529 27.6183 24.765 27.5736 24.7813 27.5441C25.0579 26.9148 25.2615 26.2724 25.3932 25.5994C25.4814 25.1307 25.5543 24.6479 25.5837 24.166C25.6425 23.4331 25.6273 22.7032 25.5402 21.9702C25.4672 21.2678 25.3061 20.5806 25.0862 19.8934C24.7813 18.9581 24.3567 18.0788 23.8177 17.2584C23.3232 16.499 22.7254 15.8108 22.0679 15.1815C21.2208 14.3622 20.2735 13.674 19.2379 13.1342C18.7861 12.9003 18.3342 12.695 17.8539 12.5191C17.4435 12.3575 17.0362 12.2406 16.6137 12.1237C16.1912 12.021 15.7677 11.9468 15.329 11.8746C14.4262 11.7414 13.5224 11.714 12.6176 11.773C12.2397 11.7862 11.8749 11.8451 11.4939 11.8878C11.0421 11.9478 10.6054 12.0352 10.1676 12.1511C9.70258 12.2833 9.23447 12.4297 8.78156 12.6045C7.85042 12.9715 6.98817 13.4534 6.1857 14.0379C5.38425 14.6102 4.65575 15.2812 4.01438 16.0283C3.44597 16.6871 2.94949 17.3895 2.55637 18.1652C2.29394 18.6765 2.05989 19.2031 1.87143 19.7449C1.73971 20.1119 1.63839 20.4769 1.56544 20.8571C1.44892 21.3826 1.36077 21.9092 1.3324 22.4368C1.3324 22.5243 1.31619 24.2504 1.3324 24.3236C1.36077 24.5147 1.37597 24.7038 1.39117 24.8949C1.49249 25.7722 1.72654 26.6221 2.04672 27.4567C2.46923 28.5231 3.05284 29.4888 3.78134 30.3651C4.74491 31.523 5.85236 32.5019 7.15028 33.2633C8.15742 33.8631 9.23447 34.3023 10.3743 34.5666C10.6651 34.6388 10.7229 34.5798 10.4888 34.8878C9.67319 35.9563 8.85654 37.0237 8.03989 38.0911C7.98112 38.1785 7.90817 38.2517 7.8646 38.3544C7.95275 38.4123 8.02469 38.4702 8.09764 38.515C9.00244 39.071 9.90623 39.6403 10.7958 40.1964C11.8161 40.8419 12.8517 41.4844 13.873 42.1269C13.9753 42.199 13.9753 42.199 14.0624 42.0974C14.3239 41.7609 14.5873 41.4254 14.8507 41.0889C15.7687 39.8884 16.7019 38.6746 17.6198 37.474C18.2176 36.6994 18.8165 35.9237 19.3991 35.1481C19.6169 34.8553 19.5308 34.9143 19.8641 34.9143H27.3457H53.3023H64.5733C64.5733 34.9143 66.4538 34.9 67.5187 34.7841C68.2492 34.6957 68.9635 34.5503 69.6627 34.3297C69.9838 34.2271 70.2898 34.1264 70.5958 33.977C70.6688 33.9495 70.7428 33.9343 70.8157 33.977C71.1663 34.1539 71.529 34.2555 71.8938 34.3745C72.2575 34.4914 72.6375 34.5646 73.0022 34.6378C73.0022 34.6378 75.364 34.9153 78.7634 34.652C79.2568 34.5798 79.7543 34.4497 80.2335 34.3003C81.0218 34.0522 81.7665 33.7157 82.4383 33.2318C83.8811 32.2071 84.7393 30.8185 85.0767 29.0771C85.1791 28.5495 85.2084 28.0239 85.2084 27.4831C85.2449 22.5863 85.2449 17.6701 85.2449 12.754ZM18.3129 23.9769C18.2541 24.4883 18.0646 24.9559 17.788 25.3951C17.2044 26.2876 16.4303 26.9616 15.4546 27.3855C14.9885 27.5898 14.492 27.6925 13.9814 27.7372C13.3836 27.7962 12.799 27.7657 12.2174 27.6203C11.6642 27.4892 11.1535 27.2554 10.6722 26.9331C10.1616 26.5824 9.70967 26.1585 9.32971 25.6604C8.7765 24.9142 8.54244 24.0796 8.6002 23.1586C8.64478 22.4999 8.80385 21.8706 9.17064 21.3003C9.57896 20.6426 10.119 20.115 10.7594 19.7063C11.5902 19.1807 12.494 18.9601 13.4859 18.9744C13.9388 18.9744 14.3907 19.0171 14.8416 19.135C15.6289 19.3403 16.3148 19.7348 16.9268 20.2919C17.248 20.5846 17.5256 20.8916 17.7576 21.2566C18.0788 21.7689 18.2683 22.324 18.3281 22.9248C18.3706 23.2582 18.3565 23.6252 18.3129 23.9769ZM84.0493 20.9191V27.6061C84.0493 28.3228 83.9612 29.0252 83.7281 29.6992C83.409 30.664 82.8385 31.4538 82.0361 32.0821C81.3228 32.6392 80.5203 33.0051 79.6611 33.2532C79.0785 33.429 78.4787 33.5175 77.8667 33.6049C77.7937 33.6202 77.7046 33.6202 77.6326 33.6202C76.436 33.7076 74.2789 33.6202 74.2789 33.6202C73.52 33.546 72.7611 33.3996 72.0336 33.1505C71.683 33.0336 71.3476 32.9035 71.0265 32.7276C70.9981 32.7113 70.9819 32.6981 70.9535 32.6839C70.764 32.5802 70.7509 32.5802 70.5756 32.6839C69.9788 32.9909 69.3354 33.2095 68.695 33.3559C68.1702 33.488 67.6312 33.5612 67.0921 33.6049C66.159 33.6923 65.2258 33.6781 64.2926 33.6781C64.0596 33.6781 64.0596 33.6781 64.0596 33.4433C64.0596 31.9947 64.0596 30.5613 64.0596 29.1127C64.0596 29.0832 64.0596 29.0395 64.0596 29.01C64.0596 28.9063 64.0869 28.8911 64.1913 28.8911H64.9786C65.3423 28.8911 65.7071 28.8911 66.0698 28.8768C66.4214 28.8626 66.7861 28.8036 67.1195 28.6725C67.2087 28.644 67.2806 28.6135 67.3535 28.5698C67.5856 28.4377 67.7315 28.2486 67.7902 27.9843C67.8064 27.8674 67.8186 27.7362 67.8338 27.6203C67.8338 27.5034 67.8338 27.3713 67.8338 27.2544C67.8338 22.8363 67.8338 18.4031 67.8338 13.985C67.8338 13.5896 67.7902 13.6333 68.1702 13.6333H73.3467C73.6983 13.6333 73.6679 13.5896 73.6679 13.9555V27.4272C73.6679 27.6315 73.6679 27.8237 73.7267 28.027C73.7854 28.276 73.9445 28.4661 74.1634 28.583C74.4278 28.7304 74.7034 28.7874 74.981 28.8321C75.7105 28.949 76.438 28.9348 77.1686 28.7721C77.4006 28.7132 77.6346 28.641 77.8383 28.4956C77.9842 28.3767 78.0865 28.2323 78.1321 28.0422C78.1595 27.8958 78.1899 27.7494 78.1899 27.6031C78.1899 27.4851 78.1899 27.3692 78.1899 27.2656C78.1899 22.8323 78.1899 18.399 78.1899 13.9657C78.1899 13.5855 78.1453 13.6292 78.5253 13.6292H83.7606C84.0665 13.6292 84.0534 13.5997 84.0534 13.9067C84.0493 16.25 84.0493 18.5769 84.0493 20.9191Z" fill="#FB8C00"/>
<path id="Vector_15" d="M114.904 36.6313C115.007 36.6313 115.037 36.7614 114.948 36.8061C113.608 37.4801 108.752 39.9229 107.979 40.2736C107.324 40.5817 106.737 40.9324 106.038 41.1377C105.703 41.2404 105.266 41.2099 104.902 41.2099C103.575 41.2099 101.169 41.2099 100.06 41.2099C99.9589 41.2099 99.9295 41.0645 100.018 41.0208C101.301 40.421 105.34 38.5028 107.294 37.6112C107.994 37.291 108.708 36.9383 109.451 36.7187C109.729 36.6313 109.991 36.6597 110.283 36.6465C110.296 36.6313 113.695 36.6313 114.904 36.6313ZM112.118 37.4069C112.09 37.4069 109.727 37.4354 109.727 37.4354C108.896 37.7871 103.981 39.9961 103.384 40.2736C103.356 40.2889 103.356 40.3336 103.399 40.3336C103.693 40.3336 104.537 40.3479 104.945 40.3479C105.456 40.3336 105.659 40.3336 106.038 40.2147C107.191 39.6739 112.118 37.4069 112.118 37.4069Z" fill="#FB8C00"/>
</g>
<defs>
<clipPath id="clip0_335_14977">
<rect width="115" height="46" fill="white"/>
</clipPath>
</defs>
</svg>
