<svg width="16" height="18" viewBox="0 0 16 18" fill="none" xmlns="http://www.w3.org/2000/svg">
<path id="Vector" d="M12.4502 8.34251C12.3703 8.30545 12.2888 8.26945 12.2062 8.23557C12.0629 5.67549 10.6178 4.20963 8.19089 4.19481C6.79065 4.18581 5.53699 4.73849 4.75591 5.88565L6.09052 6.77184C6.6457 5.95659 7.51703 5.78295 8.15862 5.78295H8.1805C8.97963 5.78772 9.58294 6.01271 9.97293 6.45103C10.2568 6.77078 10.4471 7.21175 10.5412 7.76866C9.83235 7.6522 9.06659 7.6162 8.24723 7.66173C5.94011 7.79037 4.45672 9.09264 4.55627 10.9021C4.60659 11.8205 5.07917 12.6098 5.8865 13.126C6.56912 13.5622 7.44865 13.7755 8.3621 13.7268C9.56926 13.6633 10.5155 13.2176 11.1763 12.4029C11.6778 11.784 11.9951 10.982 12.1351 9.97194C12.71 10.3076 13.1361 10.7496 13.3718 11.2811C13.7716 12.1842 13.7952 13.6686 12.5437 14.8788C11.4476 15.9391 10.1294 16.3976 8.13784 16.4119C5.92807 16.396 4.25708 15.7099 3.17079 14.3732C2.15343 13.1218 1.62779 11.3139 1.6081 9C1.62779 6.68608 2.15343 4.87824 3.17079 3.62679C4.25708 2.2901 5.92807 1.60402 8.13784 1.58814C10.3629 1.60402 12.0629 2.29328 13.1913 3.63632C13.7443 4.29486 14.1611 5.12335 14.4362 6.08894L16 5.68502C15.6669 4.49656 15.1429 3.47221 14.4291 2.62255C12.9829 0.900477 10.8683 0.0185283 8.14331 0H8.13237C5.41283 0.0185283 3.32121 0.904182 1.91659 2.63261C0.666211 4.17046 0.0213319 6.31075 0 8.99365V9.00635C0.0213319 11.6893 0.666211 13.8295 1.91659 15.3674C3.32121 17.0958 5.41283 17.982 8.13237 18H8.14331C10.5609 17.9836 12.2653 17.3711 13.6694 16.0132C15.5061 14.2372 15.4508 12.0111 14.8453 10.6443C14.411 9.66437 13.5829 8.86818 12.4502 8.34251ZM8.27567 12.1413C7.26487 12.1964 6.21414 11.757 6.16218 10.8163C6.12389 10.1186 6.67524 9.33986 8.33803 9.24722C8.52837 9.23663 8.71544 9.23134 8.89867 9.23134C9.50253 9.23134 10.0676 9.28798 10.5812 9.39704C10.3897 11.7125 9.26624 12.0884 8.27567 12.1413Z" fill="#424242"/>
</svg>
