<svg width="19" height="18" viewBox="0 0 19 18" fill="none" xmlns="http://www.w3.org/2000/svg">
<g id="twitter 2" clipPath="url(#clip0_430_21664)">
<path id="Vector" d="M15.7675 3.9466C15.628 4.1281 15.4743 4.30285 15.3055 4.4686C15.1308 4.6426 15.0453 4.89385 15.097 5.1496C15.1248 5.2861 15.142 5.4526 15.1428 5.6251C15.1428 9.5671 13.321 12.3533 10.7853 13.7986C8.80004 14.9303 6.33179 15.2648 3.86879 14.6386C4.80254 14.3678 5.71379 13.9478 6.56354 13.3711C6.67379 13.2968 6.76829 13.1888 6.82754 13.0553C6.99554 12.6766 6.82529 12.2333 6.44654 12.0653C4.36604 11.1406 3.34904 9.8671 2.86979 8.6206C2.55703 7.8076 2.46028 6.9721 2.47978 6.20035C2.49554 5.5921 2.58329 5.03035 2.68829 4.56385C2.98379 4.8211 3.29054 5.09335 3.61454 5.34235C5.15279 6.5251 7.08254 7.2016 9.16079 7.1476C9.56804 7.13635 9.89279 6.80485 9.89279 6.3976V5.63935C9.89129 5.5051 9.89954 5.3716 9.91829 5.2396C10.003 4.6351 10.2963 4.06285 10.7898 3.63385C11.3335 3.1606 12.0168 2.95285 12.6843 2.99935C13.3518 3.04585 13.999 3.3466 14.4723 3.89035C14.6613 4.10485 14.959 4.20235 15.247 4.11835C15.4203 4.0681 15.5943 4.0111 15.7683 3.94735L15.7675 3.9466ZM16.9608 1.63735C16.4058 2.02885 15.8185 2.33185 15.2455 2.5411C14.5473 1.9141 13.6773 1.5646 12.7885 1.50235C11.74 1.4296 10.6615 1.7566 9.80579 2.50135C9.02879 3.1771 8.56679 4.08235 8.43329 5.03035C8.40554 5.2291 8.39204 5.42935 8.39279 5.63035C6.95129 5.52385 5.62304 4.99285 4.53029 4.15285C3.94904 3.70585 3.43379 3.1711 3.00479 2.56585C2.76479 2.22835 2.29679 2.1481 1.95929 2.3881C1.84378 2.46985 1.75903 2.57785 1.70803 2.69485C1.70803 2.69485 1.60904 2.9191 1.49428 3.26485C1.41028 3.5176 1.31353 3.8461 1.22653 4.23235C1.10429 4.77385 1.00003 5.43385 0.982035 6.1606C0.958785 7.08085 1.07203 8.1196 1.47104 9.1576C1.98329 10.4888 2.94554 11.7661 4.58129 12.7748C3.40454 13.3193 2.14754 13.5541 0.926535 13.5001C0.512535 13.4821 0.162285 13.8023 0.144285 14.2163C0.131535 14.5081 0.286785 14.7683 0.529035 14.9048C4.20779 16.9486 8.34854 16.9133 11.5285 15.1006C14.5585 13.3748 16.6428 10.0756 16.6428 5.6251C16.642 5.49985 16.6368 5.3776 16.6255 5.25835C17.38 4.4221 17.8825 3.4366 18.1225 2.4226C18.2178 2.01985 17.968 1.6156 17.5653 1.52035C17.3478 1.4686 17.1303 1.5181 16.96 1.63735H16.9608Z" fill="#424242"/>
</g>
<defs>
<clipPath id="clip0_430_21664">
<rect width="18" height="18" fill="white" transform="translate(0.142578)"/>
</clipPath>
</defs>
</svg>
